<?xml version="1.0" standalone="no"?>
<!DOCTYPE svg PUBLIC "-//W3C//DTD SVG 20010904//EN"
 "http://www.w3.org/TR/2001/REC-SVG-20010904/DTD/svg10.dtd">
<svg version="1.0" xmlns="http://www.w3.org/2000/svg"
 width="546.000000pt" height="546.000000pt" viewBox="0 0 546.000000 546.000000"
 preserveAspectRatio="xMidYMid meet">
<metadata>
Created by potrace 1.11, written by Peter Selinger 2001-2013
</metadata>
<g transform="translate(0.000000,546.000000) scale(0.100000,-0.100000)"
fill="#000000" stroke="none">
<path d="M2291 5445 c-161 -45 -295 -176 -335 -325 -38 -146 8 -308 132 -473
28 -37 39 -44 48 -35 17 19 104 167 104 178 0 4 3 10 8 12 8 3 372 605 375
620 1 6 -5 12 -13 14 -8 1 -26 6 -40 9 -62 15 -226 15 -279 0z"/>
<path d="M2644 5095 c-82 -140 -163 -280 -179 -310 -17 -30 -36 -60 -43 -67
-7 -7 -12 -16 -12 -20 0 -4 -18 -36 -39 -71 -21 -35 -46 -78 -55 -95 l-16 -31
37 -21 c21 -11 45 -24 53 -30 17 -11 207 -115 263 -145 41 -22 49 -36 16 -30
-29 6 -120 16 -264 30 -22 2 -60 6 -85 9 -102 12 -175 19 -310 31 -41 4 -83 9
-92 10 -9 2 -45 6 -80 10 -162 16 -248 25 -288 30 -19 3 -62 7 -95 11 -33 3
-78 8 -100 10 -22 3 -65 7 -95 10 -30 2 -68 6 -85 8 -16 2 -61 7 -100 11 -38
4 -83 9 -100 11 -16 2 -58 7 -92 10 l-62 6 -20 -33 c-11 -19 -25 -41 -31 -49
-45 -67 -100 -151 -100 -155 0 -2 -18 -31 -41 -65 -22 -34 -39 -63 -37 -65 1
-1 138 -89 303 -195 165 -106 336 -216 380 -244 292 -189 406 -262 424 -271
12 -5 21 -13 21 -17 0 -5 4 -8 10 -8 5 0 55 -30 110 -66 l101 -66 -36 -43
c-19 -24 -35 -48 -35 -54 0 -6 -4 -11 -9 -11 -10 0 -100 -132 -143 -211 -54
-97 -25 -103 -262 54 -116 76 -258 170 -316 208 -58 38 -110 73 -117 79 -7 5
-24 15 -38 22 -14 6 -25 15 -25 20 0 4 -4 8 -9 8 -5 0 -103 62 -218 138 -288
192 -403 265 -406 261 -2 -2 -56 -84 -120 -181 l-117 -177 18 -33 c209 -370
368 -648 381 -668 8 -14 16 -27 16 -30 0 -3 8 -16 17 -30 24 -38 218 -382 218
-387 0 -3 8 -17 18 -31 11 -15 35 -56 54 -92 20 -36 53 -94 73 -130 21 -36 48
-83 60 -105 13 -22 65 -114 117 -205 52 -91 97 -172 101 -180 4 -8 17 -31 28
-50 24 -40 212 -371 254 -445 15 -27 52 -91 81 -142 30 -50 54 -96 54 -103 0
-14 65 -10 160 10 30 6 67 13 83 15 15 2 31 7 36 10 5 3 29 -18 53 -47 66 -80
268 -278 283 -278 3 0 16 -9 28 -21 19 -17 109 -80 182 -126 37 -23 159 -87
215 -111 101 -45 115 -50 145 -58 17 -4 35 -10 40 -14 12 -9 125 -39 240 -65
11 -2 40 -7 65 -10 25 -3 70 -9 100 -13 111 -14 414 -7 510 13 14 3 45 8 70
11 25 3 50 10 56 15 6 5 13 7 15 4 3 -2 34 5 69 16 36 11 74 22 84 25 69 14
301 119 396 179 30 19 62 38 70 42 8 4 20 11 25 15 6 5 36 27 68 49 31 22 57
44 57 50 0 5 7 9 15 9 18 0 245 226 308 308 27 34 46 62 43 62 -3 0 8 15 25
32 16 18 29 36 29 41 0 5 12 24 26 43 15 19 22 34 18 34 -5 0 -4 4 1 8 6 4 15
16 22 27 25 41 102 203 105 221 2 10 6 21 9 24 13 10 67 182 83 260 2 8 6 22
9 30 3 8 8 33 11 55 3 22 8 54 11 70 4 17 9 46 12 65 8 55 12 410 5 410 -4 0
-7 17 -8 38 -1 56 -13 127 -36 227 -11 50 -20 90 -19 90 1 0 -12 38 -30 85
-17 47 -34 96 -39 110 -24 76 -165 339 -200 370 -3 3 -11 16 -18 30 -7 14 -25
39 -40 56 -15 17 -38 46 -52 65 -26 35 -208 220 -250 254 -81 63 -180 135
-189 135 -6 0 -11 5 -11 10 0 6 -5 10 -11 10 -6 0 -23 8 -37 19 -80 56 -304
156 -438 196 l-61 18 -18 76 c-23 92 -20 80 -40 171 -15 67 -20 97 -29 150 -2
8 -5 29 -9 45 -12 57 -59 310 -63 335 -1 14 -8 49 -13 79 -6 29 -11 55 -11 56
0 2 -71 47 -157 101 -87 54 -159 102 -161 106 -2 4 -8 8 -13 8 -5 0 -49 26
-97 57 -48 32 -89 58 -92 58 -3 0 -25 14 -50 29 -25 16 -72 46 -105 67 -33 21
-65 43 -72 49 -7 5 -14 10 -17 10 -3 0 -44 25 -91 55 -46 30 -86 55 -88 55 -2
0 -71 -115 -153 -255z m949 -1881 c163 -23 372 -99 485 -176 23 -16 42 -26 42
-23 0 3 15 -8 33 -24 17 -17 37 -31 43 -31 7 0 15 -7 18 -17 5 -12 -28 -50
-119 -141 -69 -68 -125 -128 -125 -133 0 -5 -4 -9 -9 -9 -5 0 -69 -61 -143
-135 -74 -74 -138 -135 -142 -135 -3 0 -25 8 -49 19 -23 10 -53 23 -67 28
l-25 10 1 389 c1 214 2 390 3 392 0 2 6 0 12 -3 5 -4 25 -9 42 -11z m-297
-381 l-1 -387 -40 -15 c-22 -8 -43 -19 -46 -24 -3 -5 -10 -8 -15 -8 -5 0 -17
-2 -26 -5 -13 -4 -89 66 -289 266 -308 308 -289 271 -179 344 30 20 60 39 65
43 44 33 276 131 298 125 4 -1 7 2 7 6 0 4 8 8 18 9 9 1 31 4 47 8 46 10 107
21 136 23 l26 2 -1 -387z m-787 -138 c36 -36 68 -65 73 -65 4 0 8 -4 8 -8 0
-5 90 -97 199 -207 l199 -198 -17 -31 c-10 -17 -24 -49 -33 -71 l-16 -40 -385
0 -385 -1 3 36 c2 19 6 44 8 55 2 11 8 38 12 60 4 22 18 76 33 120 14 44 26
82 27 85 0 3 13 29 27 58 15 28 24 52 20 52 -4 0 -2 4 4 8 5 4 21 25 33 47 53
89 108 165 120 165 3 0 35 -29 70 -65z m1941 -2 c28 -38 53 -78 56 -90 4 -13
10 -23 14 -23 4 0 13 -12 19 -27 6 -16 15 -35 20 -43 37 -58 104 -281 116
-385 l5 -51 -386 1 c-335 0 -388 2 -392 15 -2 8 -16 41 -30 73 l-25 57 79 78
c43 42 78 80 76 85 -1 4 2 7 7 7 5 0 92 83 193 185 100 101 186 185 190 185 4
0 30 -30 58 -67z m-1520 -870 c0 -7 4 -21 9 -31 45 -85 46 -105 4 -144 -10 -9
-24 -23 -30 -30 -21 -21 -97 -98 -111 -111 -6 -7 -90 -90 -185 -184 -94 -95
-175 -173 -179 -173 -6 0 -108 135 -108 144 0 2 -15 30 -33 63 -18 32 -39 74
-46 93 -8 19 -19 49 -26 65 -33 83 -59 192 -70 290 l-3 30 389 1 c316 0 389
-2 389 -13z m1745 -33 c-4 -25 -8 -54 -9 -65 -2 -11 -6 -29 -9 -40 -3 -11 -8
-31 -11 -45 -16 -85 -136 -360 -158 -360 -4 0 -8 -5 -8 -10 0 -12 -78 -120
-86 -120 -3 0 -109 104 -235 230 -127 127 -235 230 -241 230 -6 0 -8 3 -5 6 4
4 -9 21 -29 39 -29 27 -34 37 -28 59 3 14 10 26 15 26 5 0 9 7 9 15 0 9 6 30
14 48 l13 33 387 0 387 0 -6 -46z m-1482 -284 c18 -8 48 -21 68 -29 l36 -15 0
-385 0 -386 -41 3 c-23 2 -52 7 -66 10 -14 4 -36 8 -50 10 -14 2 -32 6 -40 9
-8 3 -46 15 -85 28 -68 21 -181 73 -258 117 -44 26 -147 102 -147 109 0 3 113
117 250 255 138 137 250 253 250 257 0 6 34 27 48 30 2 1 18 -5 35 -13z m736
-231 c134 -135 248 -245 252 -245 5 0 9 -6 9 -13 0 -7 9 -19 20 -27 18 -13 15
-17 -53 -67 -164 -120 -413 -215 -592 -226 l-30 -2 0 388 c0 338 2 387 15 388
8 0 38 11 65 24 28 13 55 24 60 24 6 0 120 -109 254 -244z"/>
</g>
</svg>
