<?xml version="1.0" encoding="UTF-8" standalone="no"?>
<!-- Created with Inkscape (http://www.inkscape.org/) -->

<svg
   xmlns:dc="http://purl.org/dc/elements/1.1/"
   xmlns:cc="http://creativecommons.org/ns#"
   xmlns:rdf="http://www.w3.org/1999/02/22-rdf-syntax-ns#"
   xmlns:svg="http://www.w3.org/2000/svg"
   xmlns="http://www.w3.org/2000/svg"
   xmlns:sodipodi="http://sodipodi.sourceforge.net/DTD/sodipodi-0.dtd"
   xmlns:inkscape="http://www.inkscape.org/namespaces/inkscape"
   width="149.17661mm"
   height="154.17625mm"
   viewBox="0 0 528.57852 546.29381"
   id="svg2"
   version="1.1"
   inkscape:version="0.91 r13725"
   sodipodi:docname="milfalicon.svg">
  <defs
     id="defs4" />
  <sodipodi:namedview
     id="base"
     pagecolor="#ffffff"
     bordercolor="#666666"
     borderopacity="1.0"
     inkscape:pageopacity="0.0"
     inkscape:pageshadow="2"
     inkscape:zoom="0.55394635"
     inkscape:cx="509.33199"
     inkscape:cy="335.92228"
     inkscape:document-units="px"
     inkscape:current-layer="layer1"
     showgrid="false"
     inkscape:window-width="1280"
     inkscape:window-height="755"
     inkscape:window-x="0"
     inkscape:window-y="1"
     inkscape:window-maximized="1"
     fit-margin-top="0"
     fit-margin-left="0"
     fit-margin-right="0"
     fit-margin-bottom="0" />
  <metadata
     id="metadata7">
    <rdf:RDF>
      <cc:Work
         rdf:about="">
        <dc:format>image/svg+xml</dc:format>
        <dc:type
           rdf:resource="http://purl.org/dc/dcmitype/StillImage" />
        <dc:title></dc:title>
      </cc:Work>
    </rdf:RDF>
  </metadata>
  <g
     inkscape:label="Layer 1"
     inkscape:groupmode="layer"
     id="layer1"
     transform="translate(-83.333013,-224.12681)">
    <path
       inkscape:connector-curvature="0"
       id="path4186"
       d="m 471.47862,404.6469 -11.78426,-49.60661 -303.04478,-32.05062 -23.48609,36.52332 157.81229,101.15937 76.57699,-45.06417 z"
       style="fill:#000000;fill-rule:evenodd;stroke:none;stroke-width:1px;stroke-linecap:butt;stroke-linejoin:miter;stroke-opacity:1"
       sodipodi:nodetypes="ccccccc" />
    <path
       style="fill:#000000;fill-rule:evenodd;stroke:none;stroke-width:1px;stroke-linecap:butt;stroke-linejoin:miter;stroke-opacity:1"
       d="M 284.05557,690.97355 233.87492,700.00607 83.333013,435.05228 107.4197,398.92222 261.55935,500.17656 251.42316,565.32632 Z"
       id="path4174"
       inkscape:connector-curvature="0"
       sodipodi:nodetypes="ccccccc" />
    <path
       style="opacity:0.97000002;fill:#000000;fill-opacity:1;fill-rule:nonzero;stroke:#000000;stroke-width:37.37971115;stroke-linecap:round;stroke-linejoin:round;stroke-miterlimit:4;stroke-dasharray:none;stroke-opacity:1"
       d="M 416.27847,397.84637 A 176.94243,176.94243 0 0 0 239.33729,574.78958 176.94243,176.94243 0 0 0 416.27847,751.73076 176.94243,176.94243 0 0 0 593.22167,574.78958 176.94243,176.94243 0 0 0 416.27847,397.84637 Z m 0,31.09703 A 145.84633,145.84633 0 0 1 562.12465,574.78958 145.84633,145.84633 0 0 1 416.27847,720.63575 145.84633,145.84633 0 0 1 270.43229,574.78958 145.84633,145.84633 0 0 1 416.27847,428.9434 Z"
       id="path4136"
       inkscape:connector-curvature="0" />
    <g
       id="g4151"
       transform="matrix(1.0383253,0,0,1.0383253,19.981422,17.560509)"
       style="fill:#000000">
      <rect
         y="361.78131"
         x="370.18204"
         height="349.75815"
         width="22.976814"
         id="rect4143"
         style="opacity:0.97000002;fill:#000000;fill-opacity:1;fill-rule:nonzero;stroke:none;stroke-width:56.32500076;stroke-linecap:round;stroke-linejoin:round;stroke-miterlimit:4;stroke-dasharray:none;stroke-opacity:1" />
      <rect
         transform="matrix(0,1,-1,0,0,0)"
         style="opacity:0.97000002;fill:#000000;fill-opacity:1;fill-rule:nonzero;stroke:none;stroke-width:56.32500076;stroke-linecap:round;stroke-linejoin:round;stroke-miterlimit:4;stroke-dasharray:none;stroke-opacity:1"
         id="rect4145"
         width="22.976814"
         height="349.75815"
         x="525.17194"
         y="-556.5495" />
      <rect
         y="-65.284645"
         x="637.86957"
         height="349.75815"
         width="22.976814"
         id="rect4147"
         style="opacity:0.97000002;fill:#000000;fill-opacity:1;fill-rule:nonzero;stroke:none;stroke-width:56.32500076;stroke-linecap:round;stroke-linejoin:round;stroke-miterlimit:4;stroke-dasharray:none;stroke-opacity:1"
         transform="matrix(0.70710678,0.70710678,-0.70710678,0.70710678,0,0)" />
      <rect
         transform="matrix(0.70710678,-0.70710678,0.70710678,0.70710678,0,0)"
         style="opacity:0.97000002;fill:#000000;fill-opacity:1;fill-rule:nonzero;stroke:none;stroke-width:56.32500076;stroke-linecap:round;stroke-linejoin:round;stroke-miterlimit:4;stroke-dasharray:none;stroke-opacity:1"
         id="rect4149"
         width="22.976814"
         height="349.75815"
         x="-121.08285"
         y="474.47885" />
    </g>
    <circle
       style="opacity:0.97000002;fill:#000000;fill-opacity:1;fill-rule:nonzero;stroke:none;stroke-width:56.32500076;stroke-linecap:round;stroke-linejoin:round;stroke-miterlimit:4;stroke-dasharray:none;stroke-opacity:1"
       id="path4141"
       cx="416.27948"
       cy="574.78857"
       r="50.365639" />
    <g
       id="g4242"
       transform="translate(-545.17915,32.494112)"
       style="fill:#000000">
      <path
         sodipodi:nodetypes="ccccccc"
         inkscape:connector-curvature="0"
         id="path4238"
         d="m 849.5151,287.47386 49.79866,-84.95527 94.51016,59.35355 24.54418,132.00073 -60.53926,-68.48921 -47.38726,-4.06176 z"
         style="fill:#000000;fill-rule:evenodd;stroke:none;stroke-width:1px;stroke-linecap:butt;stroke-linejoin:miter;stroke-opacity:1" />
      <path
         inkscape:connector-curvature="0"
         id="path4240"
         d="m 832.66187,277.91897 50.0951,-83.04053 c 0,0 -39.26373,-14.44183 -61.37778,17.60098 -22.11406,32.04282 11.28268,65.43955 11.28268,65.43955 z"
         style="fill:#000000;fill-rule:evenodd;stroke:none;stroke-width:1px;stroke-linecap:butt;stroke-linejoin:miter;stroke-opacity:1" />
    </g>
  </g>
</svg>
